<svg width="40" height="41" viewBox="0 0 40 41" fill="none" xmlns="http://www.w3.org/2000/svg">
<path d="M23 20.7778C23 19.1178 21.66 17.7778 20 17.7778C18.34 17.7778 17 19.1178 17 20.7778C17 22.4378 18.34 23.7778 20 23.7778C20.41 23.7778 20.81 23.6978 21.17 23.5378" stroke="#B2ABAB" stroke-width="1.5" stroke-miterlimit="10" stroke-linecap="round" stroke-linejoin="round"/>
<path d="M14.8799 29.3578L15.9699 29.9878C16.7599 30.4578 17.7799 30.1778 18.2499 29.3878L18.3599 29.1978C19.2599 27.6278 20.7399 27.6278 21.6499 29.1978L21.7599 29.3878C22.2299 30.1778 23.2499 30.4578 24.0399 29.9878L25.7699 28.9978C26.6799 28.4778 26.9899 27.3078 26.4699 26.4078C25.5599 24.8378 26.2999 23.5578 28.1099 23.5578C29.1499 23.5578 30.0099 22.7078 30.0099 21.6578V19.8978C30.0099 18.8578 29.1599 17.9978 28.1099 17.9978C27.0999 17.9978 26.4199 17.5978 26.1799 16.9678C25.9899 16.4778 26.0699 15.8378 26.4699 15.1478C26.9899 14.2378 26.6799 13.0778 25.7699 12.5578L24.9599 12.0978" stroke="#B2ABAB" stroke-width="1.5" stroke-miterlimit="10" stroke-linecap="round" stroke-linejoin="round"/>
<path d="M21.64 12.3579C20.74 13.9279 19.26 13.9279 18.35 12.3579L18.24 12.1679C17.78 11.3779 16.76 11.0979 15.97 11.5679L14.24 12.5579C13.33 13.0779 13.02 14.2479 13.54 15.1579C14.45 16.7179 13.71 17.9979 11.9 17.9979C10.86 17.9979 10 18.8479 10 19.8979V21.6579C10 22.6979 10.85 23.5579 11.9 23.5579C13.71 23.5579 14.45 24.8379 13.54 26.4079" stroke="#B2ABAB" stroke-width="1.5" stroke-miterlimit="10" stroke-linecap="round" stroke-linejoin="round"/>
</svg>
